{
  "accessors": [
    {
      "bufferView": 2,
      "componentType": 5126,
      "count": 8880,
      "max": [
        49.235267639160156,
        7.409396171569824,
        49.235267639160156
      ],
      "min": [
        -49.235267639160156,
        -7.40937614440918,
        -49.23526382446289
      ],
      "type": "VEC3"
    },
    {
      "bufferView": 2,
      "byteOffset": 106560,
      "componentType": 5126,
      "count": 8880,
      "max": [
        1.0,
        1.0,
        1.0
      ],
      "min": [
        -1.0,
        -1.0,
        -1.0
      ],
      "type": "VEC3"
    },
    {
      "bufferView": 3,
      "componentType": 5126,
      "count": 8880,
      "max": [
        1.0,
        1.0,
        0.2797550857067108,
        1.0
      ],
      "min": [
        -1.0,
        -1.0,
        -0.3306315839290619,
        -1.0
      ],
      "type": "VEC4"
    },
    {
      "bufferView": 1,
      "componentType": 5126,
      "count": 8880,
      "max": [
        1.0487099885940552,
        1.0487099885940552
      ],
      "min": [
        -0.04870999976992607,
        -0.04871099814772606
      ],
      "type": "VEC2"
    },
    {
      "bufferView": 0,
      "componentType": 5125,
      "count": 52800,
      "type": "SCALAR"
    }
  ],
  "asset": {
    "extras": {
      "author": "Leandro Salerno (https://sketchfab.com/leansaler)",
      "license": "SKETCHFAB Standard (https://sketchfab.com/licenses)",
      "source": "https://sketchfab.com/3d-models/solana-coin-c541b8ed13a840f2a5ee8d713d1d1322",
      "title": "SOLANA COIN"
    },
    "generator": "Sketchfab-13.76.0",
    "version": "2.0"
  },
  "bufferViews": [
    {
      "buffer": 0,
      "byteLength": 211200,
      "name": "floatBufferViews",
      "target": 34963
    },
    {
      "buffer": 0,
      "byteLength": 71040,
      "byteOffset": 211200,
      "byteStride": 8,
      "name": "floatBufferViews",
      "target": 34962
    },
    {
      "buffer": 0,
      "byteLength": 213120,
      "byteOffset": 282240,
      "byteStride": 12,
      "name": "floatBufferViews",
      "target": 34962
    },
    {
      "buffer": 0,
      "byteLength": 142080,
      "byteOffset": 495360,
      "byteStride": 16,
      "name": "floatBufferViews",
      "target": 34962
    }
  ],
  "buffers": [
    {
      "byteLength": 637440,
      "uri": "scene.bin"
    }
  ],
  "images": [
    {
      "uri": "textures/wire_027177027_baseColor.jpeg"
    },
    {
      "uri": "textures/wire_027177027_metallicRoughness.png"
    },
    {
      "uri": "textures/wire_027177027_normal.png"
    }
  ],
  "materials": [
    {
      "doubleSided": true,
      "name": "wire_027177027",
      "normalTexture": {
        "index": 2
      },
      "pbrMetallicRoughness": {
        "baseColorFactor": [
          0.24228645268252244,
          0.24228645268252244,
          0.24228645268252244,
          1.0
        ],
        "baseColorTexture": {
          "index": 0
        },
        "metallicRoughnessTexture": {
          "index": 1
        },
        "roughnessFactor": 0.1725689068766686
      }
    }
  ],
  "meshes": [
    {
      "name": "Object_0",
      "primitives": [
        {
          "attributes": {
            "NORMAL": 1,
            "POSITION": 0,
            "TANGENT": 2,
            "TEXCOORD_0": 3
          },
          "indices": 4,
          "material": 0,
          "mode": 4
        }
      ]
    }
  ],
  "nodes": [
    {
      "children": [
        1
      ],
      "matrix": [
        1.0,
        0.0,
        0.0,
        0.0,
        0.0,
        2.220446049250313e-16,
        -1.0,
        0.0,
        0.0,
        1.0,
        2.220446049250313e-16,
        0.0,
        0.0,
        0.0,
        0.0,
        1.0
      ],
      "name": "Sketchfab_model"
    },
    {
      "children": [
        2
      ],
      "name": "SOLANA_OBJ.obj.cleaner.materialmerger.gles"
    },
    {
      "mesh": 0,
      "name": "Object_2"
    }
  ],
  "samplers": [
    {
      "magFilter": 9729,
      "minFilter": 9987,
      "wrapS": 10497,
      "wrapT": 10497
    }
  ],
  "scene": 0,
  "scenes": [
    {
      "name": "Sketchfab_Scene",
      "nodes": [
        0
      ]
    }
  ],
  "textures": [
    {
      "sampler": 0,
      "source": 0
    },
    {
      "sampler": 0,
      "source": 1
    },
    {
      "sampler": 0,
      "source": 2
    }
  ]
}
